<?xml version="1.0" standalone="no"?>
<!DOCTYPE svg PUBLIC "-//W3C//DTD SVG 20010904//EN"
 "http://www.w3.org/TR/2001/REC-SVG-20010904/DTD/svg10.dtd">
<svg version="1.0" xmlns="http://www.w3.org/2000/svg"
 width="560.000000pt" height="560.000000pt" viewBox="0 0 560.000000 560.000000"
 preserveAspectRatio="xMidYMid meet">
<metadata>
Created by potrace 1.14, written by Peter Selinger 2001-2017
</metadata>
<g transform="translate(0.000000,560.000000) scale(0.100000,-0.100000)"
fill="#000000" stroke="none">
<path d="M2609 5596 c-2 -2 -42 -7 -89 -10 -47 -4 -94 -9 -105 -11 -11 -3 -36
-7 -55 -9 -41 -6 -207 -41 -265 -56 -22 -6 -49 -13 -59 -15 -174 -40 -514
-192 -716 -319 -153 -96 -223 -148 -369 -276 -524 -457 -855 -1095 -935 -1800
-13 -113 -15 -489 -3 -585 13 -105 20 -151 38 -245 27 -138 61 -265 105 -392
38 -108 41 -116 98 -241 20 -44 36 -80 36 -82 0 -1 27 -51 61 -111 319 -574
816 -1009 1429 -1252 68 -27 284 -98 328 -107 9 -2 72 -15 139 -29 117 -24
145 -28 313 -46 81 -8 469 -5 535 4 22 3 60 8 85 11 99 13 252 45 360 75 41
11 82 22 90 25 8 2 47 15 85 28 507 178 935 482 1284 912 34 43 70 93 124 175
32 47 61 90 67 97 5 7 10 15 10 18 0 3 12 24 26 46 133 211 294 651 329 899 2
15 14 88 21 123 11 64 19 209 19 377 0 272 -11 371 -66 629 -23 105 -96 339
-111 359 -6 6 -8 12 -5 12 9 0 -80 197 -145 320 -344 652 -949 1146 -1670
1365 -48 14 -95 28 -105 30 -10 2 -38 8 -63 14 -25 5 -61 13 -80 16 -19 3 -42
8 -50 10 -26 7 -68 14 -138 21 -37 3 -71 9 -76 12 -10 6 -471 13 -477 8z"/>
</g>
</svg>
